<svg width="1440" height="1024" viewBox="0 0 1440 1024" fill="none" xmlns="http://www.w3.org/2000/svg">
<path d="M974 520.745C974 524.675 972.49 528.151 969.471 531.174L758.417 742.466C755.397 745.489 751.925 747 748 747C744.075 747 740.603 745.489 737.583 742.466L526.529 531.174C523.51 528.151 522 524.675 522 520.745C522 516.816 523.51 513.34 526.529 510.317L549.174 487.646C552.194 484.623 555.666 483.112 559.591 483.112C563.516 483.112 566.989 484.623 570.008 487.646L748 665.839L925.992 487.646C929.011 484.623 932.484 483.112 936.409 483.112C940.334 483.112 943.806 484.623 946.826 487.646L969.471 510.317C972.49 513.34 974 516.816 974 520.745ZM974 346.634C974 350.563 972.49 354.039 969.471 357.062L758.417 568.354C755.397 571.377 751.925 572.888 748 572.888C744.075 572.888 740.603 571.377 737.583 568.354L526.529 357.062C523.51 354.039 522 350.563 522 346.634C522 342.704 523.51 339.228 526.529 336.205L549.174 313.534C552.194 310.511 555.666 309 559.591 309C563.516 309 566.989 310.511 570.008 313.534L748 491.727L925.992 313.534C929.011 310.511 932.484 309 936.409 309C940.334 309 943.806 310.511 946.826 313.534L969.471 336.205C972.49 339.228 974 342.704 974 346.634Z" fill="#D9D9D9"/>
</svg>
